<svg width="14" height="14" viewBox="0 0 14 14" fill="none" xmlns="http://www.w3.org/2000/svg">
<path d="M7.13386 10.7377V8.11954C7.13376 8.00476 7.10637 7.89203 7.05444 7.79265C7.00251 7.69328 6.92788 7.61076 6.83802 7.55337L4.76708 6.24431C4.67713 6.18686 4.57509 6.15662 4.47123 6.15662C4.36736 6.15662 4.26533 6.18686 4.17538 6.24431L2.10444 7.55337C2.01458 7.61076 1.93994 7.69328 1.88802 7.79265C1.83609 7.89203 1.8087 8.00476 1.80859 8.11954V10.7377C1.8087 10.8524 1.83609 10.9652 1.88802 11.0646C1.93994 11.1639 2.01458 11.2464 2.10444 11.3038L4.17538 12.6129C4.26533 12.6703 4.36736 12.7006 4.47123 12.7006C4.57509 12.7006 4.67713 12.6703 4.76708 12.6129L6.83802 11.3038C6.92788 11.2464 7.00251 11.1639 7.05444 11.0646C7.10637 10.9652 7.13376 10.8524 7.13386 10.7377Z" stroke="#5AB6CA" stroke-linecap="round" stroke-linejoin="round"/>
<path d="M1.88818 7.77917L4.47094 9.43187L7.0537 7.77917" stroke="#5AB6CA" stroke-linecap="round" stroke-linejoin="round"/>
<path d="M4.47119 12.7274V9.42859" stroke="#5AB6CA" stroke-linecap="round" stroke-linejoin="round"/>
<path d="M12.6553 10.7377V8.11954C12.6552 8.00476 12.6279 7.89203 12.5759 7.79265C12.524 7.69328 12.4494 7.61076 12.3595 7.55337L10.2886 6.24431C10.1986 6.18686 10.0966 6.15662 9.99271 6.15662C9.88885 6.15662 9.78681 6.18686 9.69686 6.24431L7.62593 7.55337C7.53607 7.61076 7.46143 7.69328 7.4095 7.79265C7.35758 7.89203 7.33018 8.00476 7.33008 8.11954V10.7377C7.33018 10.8524 7.35758 10.9652 7.4095 11.0646C7.46143 11.1639 7.53607 11.2464 7.62593 11.3038L9.69686 12.6129C9.78681 12.6703 9.88885 12.7006 9.99271 12.7006C10.0966 12.7006 10.1986 12.6703 10.2886 12.6129L12.3595 11.3038C12.4494 11.2464 12.524 11.1639 12.5759 11.0646C12.6279 10.9652 12.6552 10.8524 12.6553 10.7377Z" stroke="#5AB6CA" stroke-linecap="round" stroke-linejoin="round"/>
<path d="M7.40967 7.77917L9.99242 9.43187L12.5752 7.77917" stroke="#5AB6CA" stroke-linecap="round" stroke-linejoin="round"/>
<path d="M9.99268 12.7274V9.42859" stroke="#5AB6CA" stroke-linecap="round" stroke-linejoin="round"/>
<path d="M9.89509 5.39282V2.77469C9.89499 2.65991 9.8676 2.54718 9.81567 2.44781C9.76374 2.34843 9.68911 2.26591 9.59925 2.20852L7.52831 0.899458C7.43836 0.842011 7.33632 0.811768 7.23246 0.811768C7.12859 0.811768 7.02656 0.842011 6.93661 0.899458L4.86567 2.20852C4.77581 2.26591 4.70117 2.34843 4.64925 2.44781C4.59732 2.54718 4.56993 2.65991 4.56982 2.77469V5.39282C4.56993 5.5076 4.59732 5.62033 4.64925 5.7197C4.70117 5.81908 4.77581 5.9016 4.86567 5.95899L6.93661 7.26805C7.02656 7.3255 7.12859 7.35574 7.23246 7.35574C7.33632 7.35574 7.43836 7.3255 7.52831 7.26805L9.59925 5.95899C9.68911 5.9016 9.76374 5.81908 9.81567 5.7197C9.8676 5.62033 9.89499 5.5076 9.89509 5.39282Z" stroke="#5AB6CA" stroke-linecap="round" stroke-linejoin="round"/>
<path d="M4.64941 2.43396L7.23217 4.08665L9.81493 2.43396" stroke="#5AB6CA" stroke-linecap="round" stroke-linejoin="round"/>
<path d="M7.23242 7.38221V4.08337" stroke="#5AB6CA" stroke-linecap="round" stroke-linejoin="round"/>
</svg>
