<svg width="14" height="14" viewBox="0 0 14 14" fill="none" xmlns="http://www.w3.org/2000/svg">
<circle cx="5.63645" cy="8.81443" r="2.72727" stroke="#5A65CA"/>
<path d="M5.63764 5.31987C5.6367 5.28996 5.63623 5.25994 5.63623 5.2298C5.63623 3.695 6.85727 2.45081 8.3635 2.45081C9.86973 2.45081 11.0908 3.695 11.0908 5.2298C11.0908 6.50335 10.25 7.57681 9.10325 7.90535" stroke="#5A65CA"/>
<path d="M4.2997 2.7519C4.11779 2.71931 3.93182 2.72613 3.7544 2.77189C3.57699 2.81764 3.41228 2.90128 3.27144 3.01711C3.13061 3.13294 3.01695 3.27826 2.93817 3.44321C2.85938 3.60817 2.81732 3.7889 2.81484 3.97315L2.79995 4.15432" stroke="#5A65CA" stroke-linecap="round" stroke-linejoin="round"/>
<path d="M2.00018 4.26892L2.90927 5.17801L3.81836 4.26892" stroke="#5A65CA" stroke-linecap="round" stroke-linejoin="round"/>
<path d="M9.63048 11.0511C9.81239 11.0837 9.99836 11.0769 10.1758 11.0311C10.3532 10.9853 10.5179 10.9017 10.6587 10.7859C10.7996 10.67 10.9132 10.5247 10.992 10.3598C11.0708 10.1948 11.1129 10.0141 11.1153 9.82983L11.1302 9.64866" stroke="#5A65CA" stroke-linecap="round" stroke-linejoin="round"/>
<path d="M11.9998 9.72351L11.0907 8.81442L10.1816 9.72351" stroke="#5A65CA" stroke-linecap="round" stroke-linejoin="round"/>
</svg>
