<svg width="14" height="14" viewBox="0 0 14 14" fill="none" xmlns="http://www.w3.org/2000/svg">
<g clip-path="url(#clip0_525_7795)">
<path d="M11.5615 1.16663H2.43817C1.73585 1.16663 1.1665 1.73597 1.1665 2.43829V11.5616C1.1665 12.2639 1.73585 12.8333 2.43817 12.8333H11.5615C12.2638 12.8333 12.8332 12.2639 12.8332 11.5616V2.43829C12.8332 1.73597 12.2638 1.16663 11.5615 1.16663Z" stroke="#E9B92A" stroke-linecap="round" stroke-linejoin="round"/>
<path d="M3.16406 8.17426C3.16406 8.63625 3.33381 9.07933 3.63597 9.40601C3.93812 9.73269 4.34793 9.91622 4.77525 9.91622C5.20256 9.91622 5.61237 9.73269 5.91452 9.40601C6.21668 9.07933 6.38643 8.63625 6.38643 8.17426V3.5" stroke="#E9B92A" stroke-linecap="round" stroke-linejoin="round"/>
<path d="M10.2539 3.5L8.86581 3.5C8.55026 3.5 8.24763 3.65022 8.0245 3.91761C7.80137 4.18501 7.67601 4.54767 7.67601 4.92583C7.67601 5.30398 7.80137 5.66664 8.0245 5.93404C8.24763 6.20143 8.55026 6.35165 8.86581 6.35165L9.2872 6.35165" stroke="#E9B92A" stroke-linecap="round" stroke-linejoin="round"/>
<path d="M7.6748 9.9165L9.40993 9.9165C9.80437 9.9165 10.1827 9.72873 10.4616 9.39449C10.7405 9.06024 10.8972 8.60691 10.8972 8.13422C10.8972 7.66153 10.7405 7.2082 10.4616 6.87396C10.1827 6.53971 9.80437 6.35194 9.40993 6.35194" stroke="#E9B92A" stroke-linecap="round" stroke-linejoin="round"/>
</g>
<defs>
<clipPath id="clip0_525_7795">
<rect width="14" height="14" fill="white"/>
</clipPath>
</defs>
</svg>
