<svg width="14" height="14" viewBox="0 0 14 14" fill="none" xmlns="http://www.w3.org/2000/svg">
<path d="M10.1958 5.83329V2.17774C10.1958 1.90957 10.1032 1.65239 9.93838 1.46277C9.77356 1.27315 9.55001 1.16663 9.31691 1.16663H5.80136L3.16469 4.19996V10.2666C3.16469 10.5348 3.25729 10.792 3.42211 10.9816C3.58693 11.1712 3.81048 11.2777 4.04358 11.2777H5.27402" stroke="#A164AB" stroke-linecap="round" stroke-linejoin="round"/>
<path d="M5.97754 1.16663V4.27774H3.16509" stroke="#A164AB" stroke-linecap="round" stroke-linejoin="round"/>
<path d="M5.27398 6.61133H8.08643" stroke="#A164AB" stroke-linecap="round" stroke-linejoin="round"/>
<path d="M5.27395 8.94446H6.68018" stroke="#A164AB" stroke-linecap="round" stroke-linejoin="round"/>
<path d="M7.38331 4.2782H7.73487H8.08643" stroke="#A164AB" stroke-linecap="round" stroke-linejoin="round"/>
<path d="M8.78906 10.0175C8.89019 10.1556 9.01921 10.2698 9.16737 10.3525C9.31553 10.4351 9.47937 10.4843 9.64777 10.4966C9.81617 10.5089 9.98519 10.4841 10.1434 10.4238C10.3016 10.3636 10.4452 10.2693 10.5646 10.1474L11.271 9.42602C11.4855 9.19928 11.6041 8.89558 11.6015 8.58036C11.5988 8.26513 11.475 7.96359 11.2567 7.74068C11.0384 7.51777 10.7431 7.39133 10.4343 7.3886C10.1256 7.38586 9.82823 7.50704 9.60617 7.72604L9.20115 8.13721" stroke="#A164AB" stroke-linecap="round" stroke-linejoin="round"/>
<path d="M9.49262 10.2038C9.39149 10.0658 9.26247 9.95153 9.11431 9.86888C8.96615 9.78622 8.80232 9.73707 8.63391 9.72475C8.46551 9.71244 8.29649 9.73725 8.13831 9.7975C7.98012 9.85775 7.83648 9.95204 7.71712 10.074L7.01068 10.7953C6.79621 11.0221 6.67754 11.3258 6.68022 11.641C6.6829 11.9562 6.80673 12.2578 7.02503 12.4807C7.24332 12.7036 7.53863 12.83 7.84733 12.8327C8.15604 12.8355 8.45345 12.7143 8.67551 12.4953L9.07818 12.0841" stroke="#A164AB" stroke-linecap="round" stroke-linejoin="round"/>
</svg>
