<svg width="36" height="36" viewBox="0 0 36 36" fill="none" xmlns="http://www.w3.org/2000/svg">
<path d="M28.5 4.5H7.5C5.84315 4.5 4.5 5.84315 4.5 7.5V28.5C4.5 30.1569 5.84315 31.5 7.5 31.5H28.5C30.1569 31.5 31.5 30.1569 31.5 28.5V7.5C31.5 5.84315 30.1569 4.5 28.5 4.5Z" stroke="#A2A9B9" stroke-width="2" stroke-linecap="round" stroke-linejoin="round"/>
<path d="M23.8333 15H12.1667C11.2462 15 10.5 15.597 10.5 16.3333V25.6667C10.5 26.403 11.2462 27 12.1667 27H23.8333C24.7538 27 25.5 26.403 25.5 25.6667V16.3333C25.5 15.597 24.7538 15 23.8333 15Z" stroke="#A2A9B9" stroke-width="2" stroke-linecap="round" stroke-linejoin="round"/>
</svg>
