<svg width="683" height="204" viewBox="0 0 683 204" fill="none" xmlns="http://www.w3.org/2000/svg">
<path d="M27.9954 203.089H153.737C153.737 203.089 160.629 202.673 163.106 193.029C165.584 183.384 164.623 167.722 164.623 167.722H9.60205C10.131 190.514 12.727 197.627 28.0008 203.089H27.9954Z" fill="#3223A3"/>
<path d="M123.155 0.492354C121.32 -0.565478 118.972 0.141542 118.027 2.03592L109.743 18.6752C109.743 18.6752 96.4227 44.3384 103.407 59.1318C110.39 73.9199 116.441 77.8112 116.441 77.8112L139.238 38.326C146.065 26.501 142.012 11.3783 130.187 4.55097L123.16 0.492354H123.155Z" fill="#3223A3"/>
<path d="M58.689 34.7484L75.5172 69.9662C82.8307 85.2717 76.3438 103.642 61.0334 110.958L56.8552 112.955L34.1212 65.3776C28.653 53.9337 33.5047 40.2026 44.9485 34.7343L50.7678 31.9537C53.7238 30.5412 57.2717 31.7948 58.6841 34.7507L58.689 34.7484Z" fill="#3223A3"/>
<path d="M94.6386 46.7562L104.229 29.5502L109.74 18.675C109.74 18.675 106.447 33.3983 113.755 46.0977L178.396 158.363C181.597 163.9 182.401 170.517 180.555 176.643C180.528 176.729 180.501 176.815 180.474 176.902C177.808 185.537 168.622 203.45 153.742 203.083C153.742 203.083 162.847 202.171 150.947 181.559L94.7951 82.8088C88.4481 71.6422 88.3887 57.9767 94.6386 46.7562Z" fill="#7850F0"/>
<path d="M11.0996 196.564C13.9385 198.512 17.0149 200.05 20.2477 201.157C23.2485 202.187 26.3788 202.841 29.5739 203.089C22.9733 202.576 23.065 197.692 24.9594 194.34L73.3012 128.722C85.2882 111.365 86.3622 88.7027 76.0753 70.2877L73.4091 65.5167L67.332 52.8011C67.8285 53.8536 73.1123 65.9485 62.2102 81.8321L4.57454 161.488C-3.31062 172.978 -0.385395 188.679 11.0996 196.564ZM25.1483 194.011C25.3102 193.746 25.4829 193.493 25.6664 193.255L25.1483 194.011Z" fill="#7850F0"/>
<path d="M67.3287 52.8137L67.29 52.7308C67.29 52.7308 67.3066 52.764 67.3287 52.8137Z" fill="#8F00BD"/>
<path d="M379.488 40.3358H367.012C365.199 40.3358 363.729 41.8057 363.729 43.6189V168.44C363.729 170.253 365.199 171.723 367.012 171.723H379.488C381.301 171.723 382.771 170.253 382.771 168.44V43.6189C382.771 41.8057 381.301 40.3358 379.488 40.3358Z" fill="#667080"/>
<path d="M425.899 63.1858H413.424C411.61 63.1858 410.141 64.6557 410.141 66.4688V168.429C410.141 170.242 411.61 171.712 413.424 171.712H425.899C427.712 171.712 429.182 170.242 429.182 168.429V66.4688C429.182 64.6557 427.712 63.1858 425.899 63.1858Z" fill="#667080"/>
<path d="M593.061 63.1858H580.585C578.772 63.1858 577.302 64.6557 577.302 66.4688V168.429C577.302 170.242 578.772 171.712 580.585 171.712H593.061C594.874 171.712 596.344 170.242 596.344 168.429V66.4688C596.344 64.6557 594.874 63.1858 593.061 63.1858Z" fill="#667080"/>
<path d="M282.594 110.166H320.371C322.188 110.166 323.654 108.7 323.654 106.883V94.4074C323.654 92.5908 322.188 91.1244 320.371 91.1244H265.741C263.924 91.1244 262.458 92.5908 262.458 94.4074V168.44C262.458 170.257 263.924 171.723 265.741 171.723H333.076C334.893 171.723 336.359 170.257 336.359 168.44V155.965C336.359 154.148 334.893 152.681 333.076 152.681H282.594C281.992 152.681 281.5 152.189 281.5 151.587V111.271C281.5 110.669 281.992 110.177 282.594 110.177V110.166Z" fill="#667080"/>
<path d="M333.076 53.0303H265.741C263.928 53.0303 262.458 54.5001 262.458 56.3133V68.7889C262.458 70.6021 263.928 72.0719 265.741 72.0719H333.076C334.889 72.0719 336.359 70.6021 336.359 68.7889V56.3133C336.359 54.5001 334.889 53.0303 333.076 53.0303Z" fill="#667080"/>
<path d="M491.702 78.6927L481.984 64.8164C481.273 63.7877 480.091 63.1858 478.843 63.1858H462.844C460.633 63.1858 459.331 65.6809 460.601 67.4866L479.369 94.2872C480.463 95.8411 482.761 95.8411 483.856 94.2872L491.702 83.081C492.621 81.7569 492.621 80.0059 491.702 78.6818V78.6927Z" fill="#667080"/>
<path d="M505.764 131.987L532.444 170.093C533.156 171.121 534.338 171.723 535.585 171.723H551.584C553.795 171.723 555.097 169.228 553.828 167.422L516.937 114.73C516.675 114.358 516.675 113.854 516.937 113.471L549.133 67.4976C550.403 65.6809 549.1 63.1968 546.89 63.1968H530.89C529.643 63.1968 528.472 63.8096 527.75 64.8274L455.917 167.422C454.647 169.239 455.949 171.723 458.16 171.723H474.159C475.407 171.723 476.578 171.11 477.3 170.093L503.98 131.987C504.418 131.364 505.337 131.364 505.775 131.987H505.764Z" fill="#667080"/>
<path d="M679.547 80.8814H679.689C681.21 80.8814 682.458 79.6448 682.458 78.1127V65.9326C682.458 64.4334 681.243 63.1968 679.744 63.1968C679.678 63.1968 679.613 63.1968 679.547 63.1968C666.24 63.1968 653.294 67.3553 643.094 74.9063L640.927 76.515C640.566 76.7776 640.052 76.515 640.052 76.0773V66.4908C640.052 64.6741 638.585 63.2077 636.769 63.2077H624.293C622.477 63.2077 621.01 64.6741 621.01 66.4908V168.451C621.01 170.268 622.477 171.734 624.293 171.734H636.769C638.585 171.734 640.052 170.268 640.052 168.451V113.581C640.052 95.5567 657.769 80.8924 679.536 80.8924L679.547 80.8814Z" fill="#667080"/>
</svg>
