<svg width="149" height="40" viewBox="0 0 149 40" fill="none" xmlns="http://www.w3.org/2000/svg">
<path d="M5.98515 39.9988H30.7502C30.7502 39.9988 32.1076 39.917 32.5955 38.0175C33.0834 36.1179 32.8942 33.0332 32.8942 33.0332H2.36255C2.46672 37.5221 2.97801 38.9231 5.98621 39.9988H5.98515Z" fill="#1168B9"/>
<path d="M24.727 0.09697C24.3656 -0.111372 23.9032 0.027877 23.7172 0.400979L22.0855 3.67811C22.0855 3.67811 19.4621 8.73253 20.8376 11.6461C22.2131 14.5587 23.4047 15.3251 23.4047 15.3251L27.8946 7.54838C29.2393 5.21942 28.441 2.24098 26.112 0.896323L24.7281 0.09697H24.727Z" fill="#1168B9"/>
<path d="M12.0302 6.84407L15.3446 13.7803C16.785 16.7947 15.5074 20.4129 12.492 21.8537L11.6691 22.247L7.19157 12.8765C6.11459 10.6227 7.07014 7.91828 9.32403 6.8413L10.4702 6.29364C11.0523 6.01546 11.7511 6.26236 12.0293 6.84453L12.0302 6.84407Z" fill="#1168B9"/>
<path d="M19.1106 9.20836L20.9995 5.81962L22.0848 3.67773C22.0848 3.67773 21.4364 6.57752 22.8756 9.07868L35.6068 31.1895C36.2371 32.2801 36.3955 33.5833 36.032 34.7898C36.0267 34.8068 36.0214 34.8238 36.016 34.8408C35.4909 36.5416 33.6818 40.0696 30.7512 39.9973C30.7512 39.9973 32.5444 39.8176 30.2005 35.7581L19.1414 16.309C17.8913 14.1097 17.8797 11.4183 19.1106 9.20836Z" fill="#1890FF"/>
<path d="M2.65753 38.7147C3.21665 39.0984 3.82255 39.4014 4.45927 39.6193C5.05028 39.8223 5.6668 39.9509 6.29608 39.9998C4.99607 39.8989 5.01414 38.9369 5.38724 38.2768L14.9083 25.3532C17.2691 21.9347 17.4806 17.4713 15.4546 13.8444L14.9295 12.9047L13.7326 10.4004C13.8304 10.6077 14.871 12.9898 12.7239 16.1181L1.3724 31.8065C-0.180595 34.0695 0.395534 37.1617 2.65753 38.7147ZM5.42444 38.2119C5.45633 38.1598 5.49035 38.1099 5.52649 38.0631L5.42444 38.2119Z" fill="#1890FF"/>
<path d="M13.732 10.403L13.7244 10.3867C13.7244 10.3867 13.7276 10.3932 13.732 10.403Z" fill="#8F00BD"/>
<path d="M79.0084 5.5H76.1293C75.7108 5.5 75.3716 5.83922 75.3716 6.25767V35.0643C75.3716 35.4827 75.7108 35.822 76.1293 35.822H79.0084C79.4268 35.822 79.7661 35.4827 79.7661 35.0643V6.25767C79.7661 5.83922 79.4268 5.5 79.0084 5.5Z" fill="#667080"/>
<path d="M89.7193 10.7734H86.8402C86.4217 10.7734 86.0825 11.1127 86.0825 11.5311V35.0618C86.0825 35.4803 86.4217 35.8195 86.8402 35.8195H89.7193C90.1378 35.8195 90.477 35.4803 90.477 35.0618V11.5311C90.477 11.1127 90.1378 10.7734 89.7193 10.7734Z" fill="#667080"/>
<path d="M128.297 10.7734H125.418C125 10.7734 124.661 11.1127 124.661 11.5311V35.0618C124.661 35.4803 125 35.8195 125.418 35.8195H128.297C128.716 35.8195 129.055 35.4803 129.055 35.0618V11.5311C129.055 11.1127 128.716 10.7734 128.297 10.7734Z" fill="#667080"/>
<path d="M56.647 21.6152H65.3653C65.7845 21.6152 66.123 21.2768 66.123 20.8575V17.9784C66.123 17.5591 65.7845 17.2207 65.3653 17.2207H52.7577C52.3384 17.2207 52 17.5591 52 17.9784V35.0638C52 35.4831 52.3384 35.8215 52.7577 35.8215H68.2975C68.7167 35.8215 69.0552 35.4831 69.0552 35.0638V32.1847C69.0552 31.7654 68.7167 31.427 68.2975 31.427H56.647C56.5081 31.427 56.3945 31.3134 56.3945 31.1745V21.8703C56.3945 21.7314 56.5081 21.6177 56.647 21.6177V21.6152Z" fill="#667080"/>
<path d="M68.2975 8.42969H52.7577C52.3392 8.42969 52 8.76891 52 9.18736V12.0665C52 12.485 52.3392 12.8242 52.7577 12.8242H68.2975C68.7159 12.8242 69.0552 12.485 69.0552 12.0665V9.18736C69.0552 8.76891 68.7159 8.42969 68.2975 8.42969Z" fill="#667080"/>
<path d="M104.906 14.3522L102.663 11.1497C102.499 10.9123 102.226 10.7734 101.938 10.7734H98.2458C97.7357 10.7734 97.4351 11.3493 97.7281 11.766L102.059 17.9511C102.312 18.3097 102.842 18.3097 103.095 17.9511L104.906 15.3649C105.118 15.0593 105.118 14.6552 104.906 14.3496V14.3522Z" fill="#667080"/>
<path d="M108.151 26.6511L114.308 35.4451C114.473 35.6825 114.745 35.8214 115.033 35.8214H118.726C119.236 35.8214 119.536 35.2456 119.243 34.8289L110.73 22.6683C110.669 22.5824 110.669 22.4662 110.73 22.3778L118.16 11.7679C118.453 11.3487 118.152 10.7754 117.642 10.7754H113.95C113.662 10.7754 113.392 10.9168 113.225 11.1517L96.6472 34.8289C96.3542 35.2481 96.6547 35.8214 97.1649 35.8214H100.857C101.145 35.8214 101.415 35.68 101.582 35.4451L107.739 26.6511C107.84 26.5071 108.053 26.5071 108.154 26.6511H108.151Z" fill="#667080"/>
<path d="M148.257 14.8567H148.29C148.641 14.8567 148.929 14.5713 148.929 14.2177V11.4068C148.929 11.0608 148.649 10.7754 148.303 10.7754C148.287 10.7754 148.272 10.7754 148.257 10.7754C145.186 10.7754 142.198 11.7351 139.844 13.4777L139.344 13.849C139.261 13.9096 139.142 13.849 139.142 13.748V11.5356C139.142 11.1163 138.804 10.7779 138.385 10.7779H135.505C135.086 10.7779 134.748 11.1163 134.748 11.5356V35.0663C134.748 35.4855 135.086 35.824 135.505 35.824H138.385C138.804 35.824 139.142 35.4855 139.142 35.0663V22.4031C139.142 18.2435 143.231 14.8592 148.255 14.8592L148.257 14.8567Z" fill="#667080"/>
</svg>
