<svg width="184" height="32" viewBox="0 0 184 32" fill="none" xmlns="http://www.w3.org/2000/svg">
<g clip-path="url(#clip0_113_8872)">
<path d="M77.8944 31.7291C77.7188 31.7291 77.5699 31.6663 77.444 31.5406C77.3218 31.415 77.2607 31.2619 77.2607 31.0774V13.3974C77.2607 13.1972 77.3218 13.0362 77.444 12.9067C77.5661 12.7771 77.715 12.7183 77.8944 12.7183H85.5513C86.9789 12.7183 88.1393 12.942 89.0363 13.3856C89.9333 13.8292 90.5974 14.4415 91.0288 15.2188C91.4601 15.996 91.6777 16.9028 91.6777 17.9351C91.6777 18.6221 91.5593 19.2266 91.3227 19.7408C91.086 20.2551 90.7959 20.679 90.4524 21.0048C90.1089 21.3306 89.7692 21.5858 89.4371 21.7663C90.1241 22.0922 90.731 22.6339 91.2578 23.3954C91.7845 24.1569 92.0517 25.0598 92.0517 26.1118C92.0517 27.1638 91.8151 28.1687 91.338 29.0166C90.8608 29.8684 90.1585 30.5318 89.2233 31.0146C88.2881 31.4935 87.1354 31.733 85.7651 31.733H77.8944V31.7291ZM80.9327 20.5141H85.078C86.0094 20.5141 86.7117 20.2825 87.1774 19.8233C87.6431 19.3601 87.8759 18.7595 87.8759 18.0176C87.8759 17.2757 87.6431 16.6594 87.1774 16.2237C86.7117 15.7879 86.0094 15.572 85.078 15.572H80.9327V20.5141ZM80.9327 28.8517H85.3414C86.2918 28.8517 87.0133 28.5848 87.5057 28.0509C87.9981 27.5171 88.2462 26.8694 88.2462 26.1079C88.2462 25.3463 87.9942 24.6515 87.4942 24.1255C86.9904 23.5995 86.2728 23.3365 85.3414 23.3365H80.9327V28.8478V28.8517Z" fill="#666666"/>
<path d="M102.217 31.9999C100.686 31.9999 99.3539 31.733 98.2278 31.1991C97.1018 30.6653 96.2277 29.841 95.6132 28.7261C94.9986 27.6113 94.6895 26.1864 94.6895 24.4474V13.3935C94.6895 13.1933 94.7505 13.0323 94.8727 12.9028C94.9948 12.7732 95.1437 12.7144 95.3231 12.7144H97.7278C97.9225 12.7144 98.0752 12.7772 98.1897 12.9028C98.3042 13.0284 98.3614 13.1933 98.3614 13.3935V24.4474C98.3614 25.9312 98.705 27.0304 99.392 27.7487C100.079 28.4631 101.022 28.8203 102.217 28.8203C103.411 28.8203 104.35 28.4631 105.03 27.7487C105.705 27.0343 106.045 25.9352 106.045 24.4474V13.3935C106.045 13.1933 106.106 13.0323 106.228 12.9028C106.35 12.7732 106.511 12.7144 106.705 12.7144H109.083C109.278 12.7144 109.431 12.7772 109.545 12.9028C109.66 13.0284 109.717 13.1933 109.717 13.3935V24.4474C109.717 26.1864 109.412 27.6113 108.805 28.7261C108.198 29.841 107.335 30.6653 106.217 31.1991C105.098 31.733 103.766 31.9999 102.217 31.9999Z" fill="#666666"/>
<path d="M113.782 31.7291C113.606 31.7291 113.458 31.6662 113.332 31.5406C113.21 31.415 113.148 31.2619 113.148 31.0774V13.3699C113.148 13.1893 113.21 13.0362 113.332 12.9067C113.454 12.7771 113.603 12.7183 113.782 12.7183H116.263C116.458 12.7183 116.61 12.7811 116.725 12.9067C116.84 13.0323 116.897 13.1893 116.897 13.3699V31.0774C116.897 31.258 116.84 31.4111 116.725 31.5406C116.61 31.6662 116.458 31.7291 116.263 31.7291H113.782Z" fill="#666666"/>
<path d="M121.153 31.7291C120.978 31.7291 120.829 31.6662 120.703 31.5406C120.581 31.415 120.52 31.2619 120.52 31.0774V13.3699C120.52 13.1893 120.581 13.0362 120.703 12.9067C120.825 12.7771 120.974 12.7183 121.153 12.7183H123.608C123.783 12.7183 123.932 12.7811 124.058 12.9067C124.18 13.0323 124.241 13.1893 124.241 13.3699V28.4984H132.612C132.807 28.4984 132.963 28.5612 133.089 28.6869C133.211 28.8125 133.272 28.9773 133.272 29.1775V31.0774C133.272 31.258 133.211 31.4111 133.089 31.5406C132.967 31.6702 132.807 31.7291 132.612 31.7291H121.149H121.153Z" fill="#666666"/>
<path d="M135.94 31.7291C135.765 31.7291 135.616 31.6663 135.49 31.5406C135.368 31.415 135.307 31.2619 135.307 31.0774V13.3974C135.307 13.1972 135.368 13.0362 135.49 12.9067C135.612 12.7771 135.761 12.7183 135.94 12.7183H142.383C144.162 12.7183 145.628 13.0009 146.781 13.5583C147.933 14.1196 148.804 14.9518 149.395 16.0588C149.983 17.1618 150.288 18.5122 150.308 20.1059C150.342 20.9028 150.361 21.6093 150.361 22.2256C150.361 22.8419 150.342 23.5367 150.308 24.3179C150.273 26.0019 149.972 27.3915 149.411 28.4867C148.846 29.5819 147.998 30.3983 146.861 30.9322C145.723 31.4661 144.277 31.733 142.517 31.733H135.94V31.7291ZM138.979 28.6044H142.387C143.372 28.6044 144.174 28.4592 144.788 28.1687C145.403 27.8782 145.857 27.415 146.147 26.7713C146.437 26.1275 146.59 25.2835 146.609 24.2315C146.624 23.6898 146.639 23.2148 146.647 22.8066C146.655 22.3983 146.655 21.9901 146.647 21.5858C146.639 21.1775 146.624 20.7143 146.609 20.1883C146.575 18.7045 146.212 17.6093 145.525 16.9028C144.838 16.1962 143.746 15.8429 142.25 15.8429H138.975V28.6083L138.979 28.6044Z" fill="#666666"/>
<path d="M153.975 31.7291C153.8 31.7291 153.651 31.6663 153.525 31.5406C153.403 31.415 153.342 31.2619 153.342 31.0774V13.3974C153.342 13.1972 153.403 13.0362 153.525 12.9067C153.647 12.7771 153.796 12.7183 153.975 12.7183H165.594C165.789 12.7183 165.946 12.7811 166.072 12.9067C166.194 13.0323 166.255 13.1972 166.255 13.3974V15.1913C166.255 15.3718 166.194 15.5249 166.072 15.6545C165.949 15.7801 165.789 15.8429 165.594 15.8429H156.907V20.6515H165.014C165.209 20.6515 165.365 20.7104 165.491 20.8282C165.614 20.9459 165.675 21.103 165.675 21.3031V22.9872C165.675 23.1873 165.614 23.3444 165.491 23.4621C165.369 23.5799 165.209 23.6388 165.014 23.6388H156.907V28.6083H165.808C166.003 28.6083 166.159 28.6712 166.285 28.7968C166.407 28.9224 166.469 29.0873 166.469 29.2874V31.0814C166.469 31.2619 166.407 31.415 166.285 31.5446C166.163 31.6741 166.003 31.733 165.808 31.733H153.975V31.7291Z" fill="#666666"/>
<path d="M169.874 31.7291C169.698 31.7291 169.549 31.6663 169.423 31.5406C169.301 31.415 169.24 31.2619 169.24 31.0774V13.3974C169.24 13.1972 169.301 13.0362 169.423 12.9067C169.546 12.7771 169.694 12.7183 169.874 12.7183H176.714C178.844 12.7183 180.527 13.2246 181.756 14.2413C182.989 15.2541 183.604 16.73 183.604 18.6692C183.604 20.0078 183.283 21.1226 182.638 22.0097C181.997 22.8969 181.138 23.5406 180.062 23.9371L183.917 30.8615C183.97 30.9715 183.997 31.0696 183.997 31.1599C183.997 31.3247 183.94 31.4582 183.825 31.5681C183.711 31.678 183.585 31.733 183.443 31.733H181.039C180.737 31.733 180.512 31.6505 180.352 31.4896C180.191 31.3287 180.069 31.1638 179.981 30.9989L176.577 24.5612H172.905V31.0774C172.905 31.258 172.847 31.4111 172.733 31.5406C172.618 31.6663 172.466 31.7291 172.271 31.7291H169.866H169.874ZM172.912 21.4916H176.638C177.71 21.4916 178.512 21.2443 179.042 20.7457C179.569 20.2472 179.836 19.5485 179.836 18.6417C179.836 17.7349 179.577 17.0244 179.058 16.5102C178.539 15.996 177.733 15.7369 176.641 15.7369H172.916V21.4955L172.912 21.4916Z" fill="#666666"/>
<path d="M25.0092 15.8626C25.0092 11.2188 26.5436 6.94406 29.1163 3.54073V0H21.9021V0.0157017C20.57 0.117763 19.3409 0.812561 18.547 1.93523L0 31.7291H8.76009L20.986 12.6712V31.7252H29.1163V28.1806C26.5436 24.7772 25.0092 20.5025 25.0092 15.8587V15.8626Z" fill="#1890FF"/>
<path d="M59.6369 1.93132C58.8429 0.808655 57.6139 0.113856 56.2817 0.0117954V-0.00390625H50.5066L50.3691 1.33074V17.5702C50.3691 18.1747 50.6211 18.7517 51.06 19.1521L51.8425 19.8666L57.1902 24.7301V12.6713L69.4123 31.7252H78.1724L59.6369 1.93132Z" fill="#1890FF"/>
<path d="M29.1162 15.8626C29.1162 24.6791 36.193 31.8508 44.766 31.7252C48.4762 31.6703 51.8695 30.2689 54.5033 27.9725L49.1136 23.0658C48.7358 22.7203 48.1937 22.6536 47.7357 22.8734C46.6287 23.4073 45.3729 23.6742 44.0523 23.5878C40.3192 23.3405 37.2885 20.2395 37.0366 16.4004C36.7388 11.8822 40.2161 8.12169 44.5447 8.12169C45.2355 8.12169 45.7966 7.54465 45.7966 6.83415V0H44.5447C36.025 0 29.12 7.10108 29.12 15.8626H29.1162Z" fill="#1890FF"/>
</g>
<defs>
<clipPath id="clip0_113_8872">
<rect width="184" height="32" fill="white"/>
</clipPath>
</defs>
</svg>
